<svg width="113" height="30" viewBox="0 0 113 30" fill="none" xmlns="http://www.w3.org/2000/svg">
<path fill-rule="evenodd" clip-rule="evenodd" d="M12.9929 0.971329L0.690796 29.1822H10.0981L11.7263 25.1744H18.9625V29.1822H28.1885V0.971329H12.9929ZM18.7818 17.0042H14.9826L18.7818 10.2209V17.0042ZM55.5049 0.66272H40.8515C35.9665 0.66272 34.339 6.05853 34.339 6.05853L30.9019 22.8621C30.9019 22.8621 29.6353 29.1828 35.9671 29.1828H49.716L51.1633 20.8585H43.7463C43.7463 20.8585 40.49 21.4752 41.0329 18.3917C41.2137 17.929 42.4803 11.7624 42.4803 11.7624C42.4803 11.7624 42.8418 9.60421 44.47 9.60421H53.6959L55.5049 0.66272ZM59.847 0.817278L52.9722 29.1822H62.018L65.093 17.1582L65.8167 29.1822H70.7017L76.1278 17.1582L73.4145 29.1822H81.5546L88.2491 0.66272H76.6714L71.0626 12.5332V0.817278H59.847ZM86.0781 29.1822L92.4087 0.66272H111.043L109.595 8.83396H99.827L99.284 11.6084H108.691L107.244 17.7749L97.6559 17.6209L97.113 20.3953H106.7L104.711 29.1822H86.0781ZM109.414 28.7206C108.148 28.7206 107.424 27.9488 107.424 26.8705C107.424 25.7911 108.148 25.0204 109.414 25.0204C110.681 25.0204 111.586 25.7911 111.586 26.8705C111.586 27.9493 110.681 28.7206 109.414 28.7206ZM109.414 29.3373C111.043 29.3373 112.309 28.1039 112.309 26.8705C112.309 25.483 111.043 24.4037 109.414 24.4037C107.786 24.4037 106.52 25.483 106.52 26.8705C106.52 28.1039 107.787 29.3373 109.414 29.3373ZM110.138 27.0245C110.681 27.0245 111.043 26.8705 111.043 26.2538C111.043 25.6371 110.5 25.483 109.776 25.483H108.329V28.1034H108.872V27.024H109.414L110.138 28.1034H110.862L110.138 27.0245ZM108.872 26.7159V25.9452H109.595C109.957 25.9452 110.319 25.9452 110.319 26.2538C110.319 26.5614 110.138 26.7154 109.776 26.7154H108.872V26.7159Z" fill="#CD5241"/>
</svg>
